@startuml ScholorSync

entity "学科" as department {
  + 学科ID <<PK>>
  --
  学科名
}

entity "クラス" as school_class {
  + クラスID <<PK>>
  --
  # 学科ID <<FK>>
  クラス名
}

entity "Discordギルド" as discord_guild {
  + ギルドID <<PK>>
  --
  # クラスID <<FK>>
}

entity "生徒" as student {
  + 生徒ID <<PK>>
  --
  # クラスID <<FK>>
  メールアドレス
  生徒名
  学籍番号
  出席番号
}

entity "教師" as teacher {
  + 教師ID <<PK>>
  --
  教師名
  メールアドレス
}

entity "担任" as class_teacher {
  + 担任ID <<PK>>
  --
  # 教師ID <<FK>>
  # クラスID <<FK>>
}

entity "教科" as subject {
  + 教科ID <<PK>>
  --
  教科名
}

entity "担当教科" as teacher_subject {
  + 担当ID <<PK>>
  --
  # 教師ID <<FK>>
  # 教科ID <<FK>>
  担当年度
}

entity "課題" as issue {
  + 課題ID <<PK>>
  --
  # 担当教科ID <<FK>>
  課題名
  課題ナンバー
  コメント
  非公開フラグ
  チャレンジ問題フラグ
  チャレンジ問題満点
}

entity "課題表紙" as issueCover {
  + 課題表紙ID <<PK>>
  --
  # 課題ID <<FK>>
  # 生徒ID <<FK>>
  コメント
}

entity "課題表紙状態" as issueCoverStatus {
  + 課題表紙状態ID <<PK>>
  --
  # 課題表紙ID <<FK>>
  評定
  提出状態
  チャレンジ問題点数
  再提出期限
  再提出コメント
}

entity "教科学科" as subject_department {
  + 教科学科ID <<PK>>
  --
  # 教科ID <<FK>>
  # 学科ID <<FK>>
}

entity "課題クラス" as issue_class {
  + 課題クラスID <<PK>>
  --
  # 課題ID <<FK>>
  # クラスID <<FK>>
  納期
}

entity "生徒クラス履歴" as student_class_history {
  + 履歴ID <<PK>>
  --
  # 生徒ID <<FK>>
  # クラスID <<FK>>
  年度
}

' エンティティ間の関係
department ||--o{ school_class : 含まれるクラス
department ||--o{ subject_department : 教科に関連

school_class ||--o{ student : 所属生徒
school_class ||--o{ class_teacher : 担任
school_class ||--o{ issue_class : 課題に関連
school_class ||--o{ discord_guild : 所属ギルド

teacher ||--o{ class_teacher
teacher ||--o{ teacher_subject : 担当教科

subject ||--o{ teacher_subject : 担当教師
subject ||--o{ subject_department : 学科に関連

teacher_subject ||--o{ issue : 担当する課題

issue ||--o{ issueCover : 対応
issue ||--o{ issue_class : 関連するクラス

student ||--o{ issueCover : 提出

issueCover ||--|| issueCoverStatus : 状態

student ||--o{ student_class_history : 履歴
school_class ||--o{ student_class_history : 履歴

' 線種を直交線に設定
skinparam Linetype ortho

@enduml
